<svg xmlns="http://www.w3.org/2000/svg" xmlns:xlink="http://www.w3.org/1999/xlink" version="1.1" x="0px" y="0px" viewBox="0 0 100 125" style="enable-background:new 0 0 100 100;" xml:space="preserve"><path d="M19,62.6c0,4.1-3.4,7.5-7.5,7.5s-7.5-3.4-7.5-7.5s3.4-7.5,7.5-7.5S19,58.5,19,62.6z M11.4,58c-2.5,0-4.6,2.1-4.6,4.6  s2.1,4.6,4.6,4.6s4.6-2.1,4.6-4.6S14,58,11.4,58z"/><circle cx="11.4" cy="62.6" r="1.7"/><path d="M90.6,62.6c0,4.1-3.4,7.5-7.5,7.5c-4.1,0-7.5-3.4-7.5-7.5s3.4-7.5,7.5-7.5C87.2,55.1,90.6,58.5,90.6,62.6z M83.1,58  c-2.5,0-4.6,2.1-4.6,4.6s2.1,4.6,4.6,4.6c2.5,0,4.6-2.1,4.6-4.6S85.6,58,83.1,58z"/><circle cx="83.1" cy="62.6" r="1.7"/><path d="M76.5,56.9H21.9L18.2,58l0.4,0.9l3.3-0.9h6.3l-7.3,6.6l-1.2-0.3l-0.4,1.1l3.6,0.6h51.9v-1.1h-4c1.2-1.2,5.1-4.8,5.1-4.8  l1.3-2.6l0.3-0.6L76.5,56.9z M46.4,57.9h0.4l7,7H39.4C40.7,63.5,44.8,59.4,46.4,57.9z M38.2,64.9l-7.1-6.9H45L38.2,64.9z M54.9,64.9  l-7.1-7h14.5l-7.2,7H54.9z M63.5,58.1l5.3,6.8H56.3C57.9,63.4,62,59.5,63.5,58.1z M21.8,64.7c0.6-0.5,6.5-5.7,7.7-6.8H30l7,7H22.8  L21.8,64.7z M69.6,64.7l0.1-0.1l-5.1-6.7h11.4l0.3,0.2L69.6,64.7z"/><path d="M35.6,28l2.4,5.6l1.5,1.8c0.1,0.1,0.2,0.3,0.3,0.4L47,49.3c1.1,2,3,3.4,5.2,3.9l8.4,1.7c1.5,0.4,2.5,1,3.1,1.8H43.3  l-0.7-1.2c-0.2-0.2-0.4-0.4-0.5-0.7L37,39c-0.1-0.2-0.1-0.4-0.1-0.6c0.1-0.8,0-1.7-0.1-2.6l-2.9-8.1C34.4,27.5,34.9,27.6,35.6,28z   M37.8,38.2c3.1,7.2,6.2,14.2,8.7,17.9c0,0,0.4-0.6,1-0.7s1,0.5,1.1,0.6c0.1,0.1,2.8,0,2.8,0c-3.1-1.1-5.2-3.3-6.6-6.1l-5.7-12.6  c-0.1-0.2-0.2-0.3-0.3-0.4l-1.3-1.3L37.8,38.2z"/><polygon points="69.7,64.3 69,63.4 69,58.1 69.7,58.1 "/><polygon points="70,48.9 69.9,48.2 69.7,48.1 69.7,48.1 69,47.6 68.7,47.9 68.5,47.8 68.1,48.3 68.8,48.8 68.8,49.1 69,49.7   69,56.7 69.7,56.7 69.7,50 69.9,49.8 70.2,49.9 70.5,49.4 "/><rect x="71.6" y="42.3" transform="matrix(0.6303 -0.7764 0.7764 0.6303 -12.9577 74.5825)" width="0.4" height="17.2"/><path d="M63,48.3L63,48.3c-0.2-0.1-0.2-0.3-0.1-0.5l3.2-4.9c0.1-0.1,0.3-0.2,0.4-0.1l0,0c0.1,0.1,0.2,0.3,0.1,0.4l-3.2,4.9  C63.4,48.3,63.2,48.4,63,48.3z"/><path d="M44.5,60.2l0.6,1.7c0.2,0.4,0.6,0.7,1,0.7l5.1,0.2l-4.7-4.7L44.5,60.2z"/><polygon points="48.6,58.3 61.4,58.2 56.7,62.9 53.4,62.9 "/><polygon points="60.5,61.4 64.6,60 63.4,58.5 "/><polygon points="63.7,55.8 68.7,55.8 68.7,54.9 62.3,54.9 "/><path d="M74.5,54.9l-0.5,0l0,0h-4.1v0.8h3.5c1.4,0,1.8,0.4,2.4,0.9l1,0C76.5,55.9,75.3,54.9,74.5,54.9z"/><path d="M72.2,54.8H74l0,0l0.5,0c0.1,0,0.2,0,0.2,0c0.1-0.3,0.3-0.5,0.5-0.7l-1.9-1.5C72.8,53.3,72.4,54,72.2,54.8z"/><path d="M78.1,52.8c1.5,0,2.7,0.8,3.4,2.1c0.5-0.1,1.1-0.2,1.7-0.2c0.3,0,0.6,0,0.9,0.1c-0.8-2.5-3.1-4.3-5.9-4.3  c-1.6,0-3.1,0.6-4.2,1.7l1.9,1.5C76.4,53.1,77.2,52.8,78.1,52.8z"/><ellipse transform="matrix(0.9605 0.2781 -0.2781 0.9605 13.9151 -3.713)" cx="20" cy="47.2" rx="0.5" ry="1.8"/><g><path d="M19.6,48.1l-0.2,0.8l0.3,0.1C19.6,48.8,19.6,48.5,19.6,48.1z"/><path d="M20.2,46.2c0.2-0.5,0.5-0.7,0.7-0.7l-0.4-0.1L20.2,46.2z"/><path d="M20.8,45.5c0.3,0.1,0.3,0.9,0,1.9c-0.2,0.8-0.6,1.5-0.9,1.6l3.3,0.9c0.6-1.1,0.9-2.2,1-3.5L20.8,45.5z"/></g><path d="M30.9,45.8c2.2,0,4.3,0.5,6.2,1.5l0,1.9l0.4,0.1l-2.8,6.4l-5.2-1l-0.2-5.8l0.2-1.5l0.7-0.2L30.9,45.8z M34.5,55L34.5,55  c0-0.1,0-0.2-0.1-0.2L30,53.9c-0.1,0-0.2,0-0.2,0.1l0,0c0,0.1,0,0.2,0.1,0.2l4.4,0.9C34.4,55.1,34.5,55.1,34.5,55z M34.7,54.2  L34.7,54.2c0-0.1,0-0.2-0.1-0.2l-4.4-0.9c-0.1,0-0.2,0-0.2,0.1l0,0c0,0.1,0,0.2,0.1,0.2l4.4,0.9C34.6,54.4,34.6,54.3,34.7,54.2z   M34.8,53.5L34.8,53.5c0-0.1,0-0.2-0.1-0.2l-4.4-0.9c-0.1,0-0.2,0-0.2,0.1l0,0c0,0.1,0,0.2,0.1,0.2l4.4,0.9  C34.7,53.6,34.8,53.6,34.8,53.5z M35,52.7L35,52.7c0-0.1,0-0.2-0.1-0.2l-4.4-0.9c-0.1,0-0.2,0-0.2,0.1l0,0c0,0.1,0,0.2,0.1,0.2  l4.4,0.9C34.9,52.9,34.9,52.8,35,52.7z M35.1,52L35.1,52c0-0.1,0-0.2-0.1-0.2l-4.4-0.9c-0.1,0-0.2,0-0.2,0.1l0,0  c0,0.1,0,0.2,0.1,0.2l4.4,0.9C35,52.1,35.1,52.1,35.1,52z M35.3,51.3L35.3,51.3c0-0.1,0-0.2-0.1-0.2l-4.4-0.9c-0.1,0-0.2,0-0.2,0.1  l0,0c0,0.1,0,0.2,0.1,0.2l4.4,0.9C35.2,51.4,35.3,51.3,35.3,51.3z M35.4,50.5L35.4,50.5c0-0.1,0-0.2-0.1-0.2l-4.4-0.9  c-0.1,0-0.2,0-0.2,0.1l0,0c0,0.1,0,0.2,0.1,0.2l4.4,0.9C35.3,50.6,35.4,50.6,35.4,50.5z"/><path d="M30.8,49.1l-3.7-0.9l0.1-0.4c0.1-0.3-0.1-0.7-0.5-0.8c-0.3-0.1-0.7,0.1-0.8,0.5l-0.1,0.4l-3.7-0.9l-0.5,1.8l2.8,0.7  l-0.1,0.5c-0.1,0.4,0.1,0.8,0.5,0.9l1.4,0.4c0.4,0.1,0.8-0.1,0.9-0.5l0.1-0.5l2.9,0.7L30.8,49.1z"/><path d="M41,56.5h-1.5c0,0,0-1.7-1-2.9c-0.9-1.2-2.5-1.2-2.5-1.2l0-1.5c0.1,0,2.3,0.1,3.6,1.8C41,54.3,41,56.4,41,56.5z"/><path d="M35.9,60.9c-1.5,0-1.5-0.1-1.6-0.1L32,58.4c0,0,3.5,1.2,5,0.8c1.4-0.4,1.8-0.9,1.8-0.9l0.1-0.1h1.7c0,0.1-1.2,2-3.3,2.5  C36.9,60.8,36.4,60.9,35.9,60.9z"/><polygon points="29.6,58 28.6,59.1 31.9,60.1 29.9,58.1 "/><polygon points="27,58.6 25.4,58.1 27.7,58.1 "/><path d="M26.4,56.8h-4.6l-0.4,0.1l-4.2-1.2c-0.2-0.1-0.5-0.1-0.7-0.1h-1.7c-1.1-0.5-2.2-0.8-3.5-0.7c-0.7,0.1-1.3,0.2-1.9,0.3  c-0.2-0.4-0.6-0.8-1.3-0.9l8-0.2c0.3,0,0.7,0,1,0.1L26.4,56.8z"/><path d="M6.7,55.3c0.3,0.3,0.7,0.5,1.1,0.5c0.4-0.3,0.8-0.4,1.3-0.6c-0.1-0.4-0.8-0.7-1.3-0.9c-0.5,0.2-0.9,0.4-1.1,0.7  C6.6,55.1,6.6,55.3,6.7,55.3z"/><path d="M90.7,63.5c0,0.4,0,0.8-0.2,1.2l2-0.7l2-0.1l0.2-0.4c0.2-0.3,0-0.6-0.3-0.6h-2L90.7,63.5z"/><path d="M94.7,64l0,1.1c0.2-0.6,0.9-0.5,1.1,0l-0.3-3.2l-5.2-2.2l0.1,0.8l0.8,0c0.1,0,0.1,0,0.2,0.1l0.5,0.3c0.1,0,0.1,0.1,0.1,0.2  l0,0.5l2.4,0.8l0.1,0.5c0,0,0.4,0.1,0.4,0.4C94.9,63.5,94.7,64,94.7,64z"/><circle cx="95.3" cy="65.3" r="0.5"/><path d="M90.6,61.5l1.3,0l0-0.4c0-0.1,0-0.2-0.1-0.2l-0.4-0.3c-0.1,0-0.1-0.1-0.2-0.1l-0.7,0C90.6,60.7,90.6,61.1,90.6,61.5z"/><path d="M20.3,50.8c-2.5-0.3-4.9,1-6.1,3.1l2-0.1l0.9,0.3c0.8-0.7,1.8-1,2.9-0.9c0.9,0.1,1.6,0.5,2.2,1.1l2.1-1.3  C23.4,51.8,22,51,20.3,50.8z"/><path d="M21.9,54.9c0.1-0.1,2.7-1.7,2.7-1.7l0.9,0c0.2,0,0.4,0.2,0.4,0.4l0.1,1.3l0.4,0v-1c0-0.7,0.6-1.3,1.3-1.3h0  c0.7,0,1.3,0.6,1.3,1.3v1l5.6,1.3l1.7,0.6l-9.6,0l-5.1-1.5L21.9,54.9z"/><path d="M32.4,61.1l1,0.6l-1.1,1.8l-0.7-0.2c-0.4,0.5-1.2,0.5-1.6,0.1c0,0-0.2,0.5-0.5,0.5c-0.3,0-0.5-0.5-0.5-0.5h-1.7  c0,0-0.2,0.4-0.5,0.4s-0.3-0.5-0.3-0.5l-1.9-0.2l3.6-3.3L32.4,61.1z M30.8,61.8c-0.4,0-0.8,0.3-0.8,0.8s0.3,0.8,0.8,0.8  c0.4,0,0.8-0.3,0.8-0.8S31.2,61.8,30.8,61.8z M28.4,61.4c0.6-0.4,0.9-0.9,0.9-0.9c-0.6,0.6-1.4,1-2.5,1.3  C26.8,61.7,27.8,61.8,28.4,61.4z"/><path d="M24.6,60.9c-0.1-0.1-0.3-0.1-0.4-0.1c-0.4,0-0.7,0.3-0.7,0.7c0,0.1,0,0.3,0.1,0.4L24.6,60.9z"/><path d="M23.3,61.5c0-0.5,0.4-0.9,0.9-0.9c0.2,0,0.4,0.1,0.5,0.2l1.6-1.5L22.7,58l-0.2,0.5l0.2,0.3c0.1,0.2-0.1,0.4-0.3,0.3  l-0.6-0.3l0.5-0.7l-0.7,0.2l-1.6,0.5l3.2,1.3l-0.2,1l0.4,0.9l0.1-0.1C23.3,61.8,23.3,61.7,23.3,61.5z"/><path d="M30.4,46.1l0.4-0.8c1.1,0,2.2,0.1,3.3,0.4c0.3-0.4,0.4-0.9,0.4-1.4c0-1.3-1.1-2.4-2.4-2.4c-1.3,0-2.4,1.1-2.4,2.4  C29.6,45,29.9,45.7,30.4,46.1z"/><path d="M18.9,59.4c0.7,1.1,0.9,2.6,0.7,4.5l1.3,0.2l2.1-1.9l-0.5-1.2L18.9,59.4z"/><text x="0" y="115" fill="#000000" font-size="5px" font-weight="bold" font-family="'Helvetica Neue', Helvetica, Arial-Unicode, Arial, Sans-serif">Created by Joel Olson</text><text x="0" y="120" fill="#000000" font-size="5px" font-weight="bold" font-family="'Helvetica Neue', Helvetica, Arial-Unicode, Arial, Sans-serif">from the Noun Project</text></svg>